<svg width="180" height="180" viewBox="0 0 180 180" fill="none" xmlns="http://www.w3.org/2000/svg">
  <!-- Toolando.tech — klucz open-end w tile (favicon / app icon) -->
  <rect width="180" height="180" rx="37" fill="#0B1220"/>
  <rect x="16" y="16" width="148" height="148" rx="30" fill="none" stroke="#38BDF8" stroke-width="3.25"/>

  <g transform="translate(90 90) rotate(-48)" fill="#38BDF8">
    <!-- uchwyt -->
    <rect x="-7.5" y="6" width="15" height="54" rx="7.5"/>
    <!-- szyjka -->
    <path d="M-14 8 L14 8 L14 -2 L8 -10 L-8 -10 L-14 -2 Z"/>
    <!-- główka open-end (szczęki w górę) -->
    <path d="
      M -36 -10
      L -36 -34
      C -36 -52 -22 -64 0 -64
      C 22 -64 36 -52 36 -34
      L 36 -10
      L 18 -10
      L 18 -30
      C 18 -40 10 -48 0 -48
      C -10 -48 -18 -40 -18 -30
      L -18 -10
      Z"/>
  </g>
</svg>
